<?xml version="1.0" encoding="UTF-8" standalone="no"?><svg width="76px" height="76px" viewBox="0 0 76 76" version="1.1" xmlns="http://www.w3.org/2000/svg" xmlns:xlink="http://www.w3.org/1999/xlink" xmlns:sketch="http://www.bohemiancoding.com/sketch/ns">        <title>Imported Layers</title>    <desc>Created with Sketch Beta.</desc>    <defs></defs>    <g id="Page-1" stroke="none" stroke-width="1" fill="none" fill-rule="evenodd" sketch:type="MSPage">        <g id="Available" sketch:type="MSArtboardGroup" transform="translate(-52.000000, -52.000000)">            <g id="Imported-Layers" sketch:type="MSLayerGroup" transform="translate(52.543512, 52.992188)">                <path d="M38.956795,64.2052576 L54.7538453,64.2052576 L54.7538453,73.7268631 L38.956795,73.7268631 L38.956795,64.2052576 Z" id="Fill-1" fill="#2F373C" sketch:type="MSShapeGroup"></path>                <path d="M38.956795,64.2052576 L54.7538453,64.2052576 L54.7538453,73.7268631 L38.956795,73.7268631 L38.956795,64.2052576 Z" id="Stroke-2" stroke="#2F373C" stroke-width="1.5" sketch:type="MSShapeGroup"></path>                <path d="M38.956795,0.637610966 L54.7538453,0.637610966 L54.7538453,10.1592165 L38.956795,10.1592165 L38.956795,0.637610966 Z" id="Fill-3" fill="#2F373C" sketch:type="MSShapeGroup"></path>                <path d="M38.956795,0.637610966 L54.7538453,0.637610966 L54.7538453,10.1592165 L38.956795,10.1592165 L38.956795,0.637610966 Z" id="Stroke-4" stroke="#2F373C" stroke-width="1.5" sketch:type="MSShapeGroup"></path>                <path d="M73.5824273,37.3265507 C73.5824273,52.1718982 61.6163406,64.2052576 46.8557049,64.2052576 C32.0950691,64.2052576 20.1297518,52.1718982 20.1297518,37.3265507 C20.1297518,22.4819769 32.0950691,10.4486176 46.8557049,10.4486176 C61.6163406,10.4486176 73.5824273,22.4819769 73.5824273,37.3265507 L73.5824273,37.3265507 Z" id="Stroke-5" stroke="#2F373C" stroke-width="2.5" sketch:type="MSShapeGroup"></path>                <path d="M15.7055621,34.331172 L20.1297518,34.331172 L20.1297518,40.323477 L15.7055621,40.323477 L15.7055621,34.331172 Z" id="Fill-6" fill="#2F373C" sketch:type="MSShapeGroup"></path>                <path d="M15.7055621,34.331172 L20.1297518,34.331172 L20.1297518,40.323477 L15.7055621,40.323477 L15.7055621,34.331172 Z" id="Stroke-7" stroke="#2F373C" stroke-width="1.5" sketch:type="MSShapeGroup"></path>                <path d="M46.9080257,37.5408932 L46.9080257,18.8938677 M46.9080257,37.5408932 L59.4473335,37.5408932" id="Stroke-8" stroke="#2F373C" stroke-width="2.5" stroke-linecap="round" stroke-linejoin="round" sketch:type="MSShapeGroup"></path>                <path d="M46.9080257,41.4895932 C44.7436351,41.4895932 42.9816535,39.7175918 42.9816535,37.5408932 C42.9816535,35.3634208 44.7436351,33.5921933 46.9080257,33.5921933 C49.0731857,33.5921933 50.8343979,35.3634208 50.8343979,37.5408932 C50.8343979,39.7175918 49.0731857,41.4895932 46.9080257,41.4895932" id="Fill-9" fill="#2F373C" sketch:type="MSShapeGroup"></path>                <path d="M46.9080257,41.4895932 C44.7436351,41.4895932 42.9816535,39.7175918 42.9816535,37.5408932 C42.9816535,35.3634208 44.7436351,33.5921933 46.9080257,33.5921933 C49.0731857,33.5921933 50.8343979,35.3634208 50.8343979,37.5408932 C50.8343979,39.7175918 49.0731857,41.4895932 46.9080257,41.4895932 L46.9080257,41.4895932 Z" id="Stroke-10" stroke="#FFFFFF" stroke-width="1.5" sketch:type="MSShapeGroup"></path>                <path d="M0.233630022,37.0073816 C0.233630022,45.5162798 7.16867129,52.4135464 15.7241708,52.4135464 C24.2796703,52.4135464 31.2147115,45.5162798 31.2147115,37.0073816 C31.2147115,28.4993452 24.2796703,21.6020786 15.7241708,21.6020786 C7.16867129,21.6020786 0.233630022,28.4993452 0.233630022,37.0073816" id="Fill-2-Copy" fill="#2F373C" sketch:type="MSShapeGroup"></path>                <path d="M25.7051536,31.145179 L13.9165366,42.8695841 L8.02222816,37.6563434" id="Stroke-3-Copy" stroke="#FFFFFF" stroke-width="2.5" stroke-linecap="round" stroke-linejoin="round" sketch:type="MSShapeGroup"></path>            </g>        </g>    </g></svg>