<?xml version="1.0" encoding="UTF-8" standalone="no"?><svg width="74px" height="74px" viewBox="0 0 74 74" version="1.1" xmlns="http://www.w3.org/2000/svg" xmlns:xlink="http://www.w3.org/1999/xlink" xmlns:sketch="http://www.bohemiancoding.com/sketch/ns">        <title>Affordable</title>    <desc>Created with Sketch Beta.</desc>    <defs></defs>    <g id="Page-1" stroke="none" stroke-width="1" fill="none" fill-rule="evenodd" sketch:type="MSPage">        <g id="Affordable" sketch:type="MSArtboardGroup" transform="translate(-52.000000, -52.000000)">            <g id="Imported-Layers" sketch:type="MSLayerGroup" transform="translate(53.779492, 53.155001)">                <path d="M42.0595035,28.5917195 C40.399605,27.3852019 38.6647676,26.5171587 36.9299302,26.1399658 L36.9299302,33.3803204 C42.6615133,34.8141529 45.113267,37.0785591 45.113267,41.1127743 L45.113267,41.1877133 C45.113267,45.2993654 41.869658,48.053373 37.0810571,48.5055049 L37.0810571,52.2012456 L33.7999787,52.2012456 L33.7999787,48.4293169 C30.5189003,48.053373 27.4251693,46.7331979 24.8984767,44.6961066 L27.3127608,41.2264318 C29.4622606,42.9987387 31.498103,44.1303173 33.9498567,44.5449797 L33.9498567,37.1160286 C28.4443395,35.6821961 25.8789283,33.6463538 25.8789283,29.3835747 L25.8789283,29.3086357 C25.8789283,25.2719226 29.0850678,22.519164 33.7999787,22.1045016 L33.7999787,19.9162834 L37.0810571,19.9162834 L37.0810571,22.1806896 C39.7963462,22.519164 42.0595035,23.4996157 44.1702848,25.0471056 L42.0595035,28.5917195 L42.0595035,28.5917195 Z M33.9498567,32.5897141 L33.9498567,25.9138999 C31.5355725,26.1399658 30.3290549,27.3852019 30.3290549,29.0438513 L30.3290549,29.0813208 C30.3290549,30.6662803 31.0459711,31.6842014 33.9498567,32.5897141 L33.9498567,32.5897141 Z M36.9299302,37.8316959 L36.9299302,44.6961066 C39.3429654,44.4313222 40.6643894,43.2635231 40.6643894,41.4524977 L40.6643894,41.3775587 C40.6643894,39.7176603 39.8338157,38.6984901 36.9299302,37.8316959 L36.9299302,37.8316959 Z" id="Fill-1" fill="#2F373C" sketch:type="MSShapeGroup"></path>                <path d="M70.1166582,35.8670456 C70.1166582,55.1763232 54.4631539,70.8298275 35.1538763,70.8298275 C15.8458477,70.8298275 0.193592369,55.1763232 0.193592369,35.8670456 C0.193592369,16.559017 15.8458477,0.906761678 35.1538763,0.906761678 C54.4631539,0.906761678 70.1166582,16.559017 70.1166582,35.8670456 L70.1166582,35.8670456 Z" id="Stroke-2" stroke="#2F373C" stroke-width="2.5" stroke-linecap="round" stroke-linejoin="round" sketch:type="MSShapeGroup"></path>            </g>        </g>    </g></svg>