<?xml version="1.0" encoding="UTF-8" standalone="no"?><svg width="75px" height="77px" viewBox="0 0 75 77" version="1.1" xmlns="http://www.w3.org/2000/svg" xmlns:xlink="http://www.w3.org/1999/xlink" xmlns:sketch="http://www.bohemiancoding.com/sketch/ns">        <title>Imported Layers Copy</title>    <desc>Created with Sketch Beta.</desc>    <defs></defs>    <g id="Page-1" stroke="none" stroke-width="1" fill="none" fill-rule="evenodd" sketch:type="MSPage">        <g id="Fun" sketch:type="MSArtboardGroup" transform="translate(-52.000000, -53.000000)">            <g id="Imported-Layers-Copy" sketch:type="MSLayerGroup" transform="translate(53.000000, 54.000000)">                <path d="M26.7499787,0.507608714 C18.384023,0.507608714 11.602329,4.54757305 11.602329,9.53154587 C11.602329,11.2301079 12.3914955,12.8182633 13.7616678,14.175153 C13.4599664,18.6711159 17.2285989,22.6980144 22.3456653,23.2467806 C22.3456653,23.2467806 19.9412765,20.8616076 21.1316136,18.2059712 L21.3101313,17.9544534 C22.9984733,18.3418562 24.8323962,18.5548297 26.7499787,18.5548297 C35.1152756,18.5548297 41.8969696,14.5148654 41.8969696,9.53154587 C41.8969696,4.54757305 35.1152756,0.507608714 26.7499787,0.507608714 L26.7499787,0.507608714 Z" id="Stroke-2" stroke="#2F373C" stroke-width="2.5" stroke-linecap="round" stroke-linejoin="round" sketch:type="MSShapeGroup"></path>                <path d="M57.6249664,11.8596125 C65.9909221,11.8596125 72.7726161,15.9002301 72.7726161,20.8835496 C72.7726161,22.5821116 71.9827908,24.1709203 70.6126185,25.52781 C70.9143199,30.0231196 67.1456874,34.0500181 62.028621,34.5987843 C62.028621,34.5987843 64.4336686,32.2142646 63.2426727,29.557975 L63.064155,29.3071104 C61.375813,29.6938599 59.5425488,29.9068335 57.6249664,29.9068335 C49.2590107,29.9068335 42.4779754,25.8668691 42.4779754,20.8835496 C42.4779754,15.9002301 49.2590107,11.8596125 57.6249664,11.8596125 L57.6249664,11.8596125 Z" id="Stroke-4" stroke="#2F373C" stroke-width="2.5" stroke-linecap="round" stroke-linejoin="round" sketch:type="MSShapeGroup"></path>                <path d="M18.0658532,5 L29.3098294,5" id="Fill-5" fill="#FFFFFF" sketch:type="MSShapeGroup"></path>                <path d="M18.0658532,6 L29.3098294,6" id="Stroke-6" stroke="#2F373C" stroke-width="2.5" stroke-linecap="round" stroke-linejoin="round" sketch:type="MSShapeGroup"></path>                <path d="M55.9194971,19 L67.1634733,19" id="Fill-7" fill="#FFFFFF" sketch:type="MSShapeGroup"></path>                <path d="M55.9194971,18 L67.1634733,18" id="Stroke-8" stroke="#2F373C" stroke-width="2.5" stroke-linecap="round" stroke-linejoin="round" sketch:type="MSShapeGroup"></path>                <path d="M51.0711952,22 L62.3151715,22" id="Fill-9" fill="#FFFFFF" sketch:type="MSShapeGroup"></path>                <path d="M51.0711952,22 L62.3151715,22" id="Stroke-10" stroke="#2F373C" stroke-width="2.5" stroke-linecap="round" stroke-linejoin="round" sketch:type="MSShapeGroup"></path>                <path d="M22.6196998,9 L33.8643347,9" id="Fill-11" fill="#FFFFFF" sketch:type="MSShapeGroup"></path>                <path d="M22.6196998,10 L33.8643347,10" id="Stroke-12" stroke="#2F373C" stroke-width="2.5" stroke-linecap="round" stroke-linejoin="round" sketch:type="MSShapeGroup"></path>                <path d="M64.0024516,49.7546364 C64.0024516,56.6234242 58.3876129,62.1921515 51.4616774,62.1921515 C44.5345806,62.1921515 38.9185806,56.6234242 38.9185806,49.7546364 C38.9185806,42.8858485 44.5345806,37.3182727 51.4616774,37.3182727 C58.3876129,37.3182727 64.0024516,42.8858485 64.0024516,49.7546364 L64.0024516,49.7546364 Z M68.9820645,74.1817273 C68.9820645,67.6157879 65.3054194,61.9031212 59.8856774,58.9494848 C57.6583226,60.9577273 54.7074839,62.1921515 51.4616774,62.1921515 C48.2135484,62.1921515 45.263871,60.9577273 43.0353548,58.9494848 C37.6156129,61.9031212 33.940129,67.6157879 33.940129,74.1817273" id="Imported-Layers" stroke="#30383D" stroke-width="2.5" stroke-linecap="round" sketch:type="MSShapeGroup"></path>                <path d="M30.7913548,41.7546364 C30.7913548,48.6234242 25.1765161,54.1921515 18.2505806,54.1921515 C11.3234839,54.1921515 5.70748387,48.6234242 5.70748387,41.7546364 C5.70748387,34.8858485 11.3234839,29.3182727 18.2505806,29.3182727 C25.1765161,29.3182727 30.7913548,34.8858485 30.7913548,41.7546364 L30.7913548,41.7546364 Z M35.7709677,66.1817273 C35.7709677,59.6157879 32.0943226,53.9031212 26.6745806,50.9494848 C24.4472258,52.9577273 21.4963871,54.1921515 18.2505806,54.1921515 C15.0024516,54.1921515 12.0527742,52.9577273 9.82425806,50.9494848 C4.40451613,53.9031212 0.729032258,59.6157879 0.729032258,66.1817273" id="Imported-Layers-Copy-2" stroke="#30383D" stroke-width="2.5" stroke-linecap="round" sketch:type="MSShapeGroup"></path>            </g>        </g>    </g></svg>