<?xml version="1.0" encoding="utf-8"?>
<!-- Generator: Adobe Illustrator 19.2.0, SVG Export Plug-In . SVG Version: 6.00 Build 0)  -->
<svg version="1.1" id="Layer_1" xmlns:sketch="http://www.bohemiancoding.com/sketch/ns"
	 xmlns="http://www.w3.org/2000/svg" xmlns:xlink="http://www.w3.org/1999/xlink" x="0px" y="0px" viewBox="0 0 78 78"
	 style="enable-background:new 0 0 78 78;" xml:space="preserve">
<style type="text/css">
	.st0{fill:#FF00BF;}
</style>
<title>1x-78px</title>
<desc>Created with Sketch.</desc>
<g id="Page-1" sketch:type="MSPage">
	<g id="_x31_x-78px" sketch:type="MSArtboardGroup">
		<path id="vector-fixed-wordmark" sketch:type="MSShapeGroup" class="st0" d="M74,35c2.1,0,2.4,0,3,0V24h-2.9
			c-1.5-6.9-7.9-12.2-15.3-12.2c-8.5,0-15.7,6.7-15.7,15.2v26.7c2.4,0.3,5.9,0.3,8.4-1.8S55,46.3,55,43v-1.2h5V31h-5v-4.1
			c0-2.2,1.2-4.3,4-4.3s4,2.2,4,4.3v11.6c0,8.5,6.9,15.4,15,15.4V42.6c-1.8,0-4-1.8-4-3.9V35z M29,40.8c0,1-0.5,2.1-2.1,2.1
			c-1.2,0-2-1.2-2-2.1c0-1.9,0-15.8,0-15.8H14v18.8c0,3.6,1.4,8.1,7,9.6c5.5,1.5,8.3-1.6,8.3-1.6c-0.3,2-2.2,3.5-4.7,3.8
			c-2.3,0.2-5.1-0.4-6.5-1.2V65c4.8,1,7.5,1.5,11.4,0.7C36.4,64.4,40,58.4,40,50.6c0-5.1,0-25.6,0-25.6H29C29,25,29,38.9,29,40.8z
			 M0,13h11v31c0,5,2.4,7.9,4.2,9.2c-1.9,1.7-7.4,3.2-11.7-0.4C0.9,50.6,0,47.1,0,43.9V13z"/>
	</g>
</g>
</svg>
