<svg xmlns="http://www.w3.org/2000/svg" viewBox="0.9 0.9 133.1 38.2"><path d="M130.2.9c2.1 0 3.8 1.7 3.8 3.8v30.5c0 2.1-1.7 3.8-3.8 3.8H4.7C2.6 39 .9 37.3.9 35.2V4.7C.9 2.6 2.6.9 4.7.9"/><path d="M30.1 19.8c0-3.2 2.6-4.8 2.8-4.9-1.5-2.2-3.9-2.5-4.7-2.5-2-.2-3.9 1.2-4.9 1.2-1 0-2.6-1.2-4.2-1.1-2.1 0-4.1 1.3-5.2 3.2-2.3 3.9-.6 9.7 1.6 12.9 1.1 1.6 2.4 3.3 4 3.2 1.6-.1 2.2-1 4.2-1 1.9 0 2.5 1 4.2 1 1.7 0 2.8-1.6 3.9-3.1 1.3-1.8 1.8-3.5 1.8-3.6-.1-.2-3.4-1.5-3.5-5.3m-3.2-9.5c.9-1.1 1.5-2.6 1.3-4.1-1.3.1-2.8.9-3.8 1.9-.8.9-1.5 2.5-1.3 3.9 1.5.2 2.9-.6 3.8-1.7m26.7 21.2h-2.3l-1.2-3.9h-4.3l-1.2 3.9h-2.2l4.3-13.3h2.6l4.3 13.3M49.8 26l-1.1-3.5c-.1-.4-.3-1.2-.7-2.5-.1.6-.3 1.4-.6 2.5L46.2 26h3.6m14.9.6c0 1.6-.4 2.9-1.3 3.9-.8.8-1.8 1.3-2.9 1.3-1.3 0-2.2-.5-2.7-1.4v5.1h-2.1V25.1c0-1 0-2.1-.1-3.2h1.9l.1 1.5c.7-1.1 1.8-1.7 3.2-1.7 1.1 0 2.1.4 2.8 1.3.7.9 1.1 2.1 1.1 3.6m-2.2.1c0-.9-.2-1.7-.6-2.3-.5-.6-1.1-.9-1.9-.9-.5 0-1 .2-1.4.5-.4.4-.7.8-.8 1.4-.1.3-.1.5-.1.6v1.6c0 .7.2 1.3.6 1.8s1 .7 1.7.7c.8 0 1.4-.3 1.9-.9.4-.7.6-1.5.6-2.5m13.2-.1c0 1.6-.4 2.9-1.3 3.9-.8.8-1.8 1.3-2.9 1.3-1.3 0-2.2-.5-2.7-1.4v5.1h-2.1V25.1c0-1 0-2.1-.1-3.2h1.9l.1 1.5c.7-1.1 1.8-1.7 3.2-1.7 1.1 0 2.1.4 2.8 1.3.7.9 1.1 2.1 1.1 3.6m-2.2.1c0-.9-.2-1.7-.6-2.3-.5-.6-1.1-.9-1.9-.9-.5 0-1 .2-1.4.5-.4.4-.7.8-.8 1.4-.1.3-.1.5-.1.6v1.6c0 .7.2 1.3.6 1.8.4.5 1 .7 1.7.7.8 0 1.4-.3 1.9-.9.4-.7.6-1.5.6-2.5M88 27.8c0 1.1-.4 2.1-1.2 2.8-.9.8-2.1 1.2-3.6 1.2-1.4 0-2.6-.3-3.4-.8l.5-1.8c.9.6 2 .9 3.1.9.8 0 1.4-.2 1.9-.5.4-.4.7-.8.7-1.5 0-.5-.2-1-.6-1.4-.4-.4-1-.7-1.8-1-2.3-.9-3.5-2.1-3.5-3.8 0-1.1.4-2 1.2-2.7.8-.7 1.9-1 3.3-1 1.2 0 2.2.2 3 .6l-.6 1.6c-.8-.4-1.6-.6-2.5-.6-.8 0-1.3.2-1.8.6-.4.3-.5.7-.5 1.2s.2 1 .6 1.3c.4.3 1 .7 1.9 1 1.1.5 2 1 2.5 1.6.6.6.8 1.4.8 2.3m7.1-4.3h-2.3v4.7c0 1.2.4 1.8 1.2 1.8.4 0 .7 0 .9-.1l.1 1.6c-.4.2-1 .2-1.7.2-.8 0-1.5-.3-2-.8s-.7-1.4-.7-2.6v-4.8h-1.4v-1.6h1.4v-1.8l2.1-.6v2.4H95c.1 0 .1 1.6.1 1.6m10.6 3.1c0 1.5-.4 2.7-1.3 3.6-.9 1-2.1 1.5-3.5 1.5s-2.5-.5-3.4-1.4-1.3-2.1-1.3-3.5c0-1.5.4-2.7 1.3-3.7.9-.9 2-1.4 3.5-1.4 1.4 0 2.5.5 3.4 1.4.9.9 1.3 2.1 1.3 3.5m-2.2.1c0-.9-.2-1.6-.6-2.3-.4-.8-1.1-1.1-1.9-1.1-.9 0-1.5.4-2 1.1-.4.6-.6 1.4-.6 2.3 0 .9.2 1.6.6 2.3.5.8 1.1 1.1 1.9 1.1.8 0 1.5-.4 1.9-1.2.5-.6.7-1.3.7-2.2m9.1-2.9c-.2 0-.4-.1-.7-.1-.8 0-1.3.3-1.7.9-.4.5-.5 1.1-.5 1.9v5h-2.1v-6.6c0-1.1 0-2.1-.1-3h1.9l.1 1.8h.1c.2-.6.6-1.1 1.1-1.5.5-.3 1-.5 1.5-.5h.5c-.1.1-.1 2.1-.1 2.1m9.6 2.5c0 .4 0 .7-.1 1h-6.4c0 .9.3 1.7.9 2.2.5.4 1.2.7 2.1.7.9 0 1.8-.2 2.6-.5l.3 1.5c-.9.4-2 .6-3.2.6-1.5 0-2.7-.4-3.5-1.3-.8-.9-1.3-2-1.3-3.5 0-1.4.4-2.7 1.2-3.6.8-1 1.9-1.5 3.4-1.5 1.4 0 2.4.5 3.1 1.5.6.6.9 1.7.9 2.9m-2.1-.6c0-.6-.1-1.2-.4-1.6-.4-.6-.9-.9-1.7-.9-.7 0-1.3.3-1.7.9-.4.5-.6 1-.6 1.7l4.4-.1M49 10c0 1.2-.4 2.1-1.1 2.7-.7.5-1.6.8-2.8.8-.6 0-1.1 0-1.5-.1V7c.6-.1 1.2-.1 1.8-.1 1.1 0 2 .2 2.6.7.7.6 1 1.4 1 2.4m-1.1 0c0-.8-.2-1.3-.6-1.8-.4-.4-1-.6-1.8-.6-.3 0-.6 0-.8.1v4.9h.7c.8 0 1.4-.2 1.9-.7s.6-1 .6-1.9m7 1c0 .7-.2 1.3-.6 1.8-.4.5-1 .7-1.7.7s-1.2-.2-1.7-.7c-.4-.5-.6-1-.6-1.7s.2-1.3.6-1.8 1-.7 1.7-.7 1.2.2 1.7.7c.4.5.6 1 .6 1.7m-1.1.1c0-.4-.1-.8-.3-1.1-.2-.4-.5-.6-.9-.6s-.7.2-1 .6c-.2.3-.3.7-.3 1.1 0 .4.1.8.3 1.1.2.4.5.6 1 .6.4 0 .7-.2.9-.6.2-.3.3-.7.3-1.1m9-2.4l-1.5 4.7h-1l-.6-2c-.2-.5-.3-1-.4-1.5-.1.5-.2 1-.4 1.5l-.6 2h-1l-1.4-4.7H57l.5 2.2.3 1.5c.1-.4.2-.9.4-1.5l.7-2.2h.9l.6 2.2c.2.5.3 1.1.4 1.6.1-.5.2-1 .3-1.6l.6-2.2h1.1m5.4 4.7h-1v-2.7c0-.8-.3-1.2-.9-1.2-.3 0-.6.1-.8.3-.2.2-.3.5-.3.8v2.8h-1V8.7h.8v.7c.1-.2.3-.4.5-.6.3-.2.6-.3.9-.3.4 0 .8.1 1.1.4.4.3.5.9.5 1.6v2.9zm2.9 0h-1V6.6h1v6.8m6.2-2.4c0 .7-.2 1.3-.6 1.8-.4.5-1 .7-1.7.7s-1.2-.2-1.7-.7c-.4-.5-.6-1-.6-1.7s.2-1.3.6-1.8 1-.7 1.7-.7 1.2.2 1.7.7c.4.5.6 1 .6 1.7m-1.1.1c0-.4-.1-.8-.3-1.1-.2-.4-.5-.6-.9-.6s-.7.2-1 .6c-.2.3-.3.7-.3 1.1 0 .4.1.8.3 1.1.2.4.5.6 1 .6.4 0 .7-.2.9-.6.2-.3.3-.7.3-1.1m6.1 2.3h-.9l-.1-.5c-.3.4-.8.6-1.4.6-.4 0-.8-.1-1.1-.4-.2-.3-.4-.6-.4-1 0-.6.2-1 .7-1.3.5-.3 1.2-.5 2-.4v-.1c0-.6-.3-.9-1-.9-.5 0-.9.1-1.2.3l-.1-.7c.4-.3 1-.4 1.6-.4 1.2 0 1.8.6 1.8 1.9v1.7c.1.6.1 1 .1 1.2m-1.1-1.6v-.7c-1.2 0-1.7.3-1.7.9 0 .2.1.4.2.6.1.1.3.2.5.2s.4-.1.6-.2c.2-.1.3-.3.4-.6v-.2m7.1 1.6h-.9v-.8c-.3.6-.8.9-1.5.9-.6 0-1-.2-1.4-.7s-.6-1-.6-1.7c0-.8.2-1.4.6-1.9.4-.4.9-.7 1.5-.7s1.1.2 1.3.6V6.6h1v5.6c-.1.4 0 .8 0 1.2m-1.1-2v-1.1c-.1-.3-.2-.5-.4-.6-.2-.2-.4-.3-.7-.3-.4 0-.7.2-.9.5-.2.3-.3.7-.3 1.2s.1.8.3 1.1c.2.3.5.5.9.5.3 0 .6-.1.8-.4.2-.2.3-.5.3-.9m10-.4c0 .7-.2 1.3-.6 1.8-.4.5-1 .7-1.7.7s-1.2-.2-1.7-.7c-.4-.5-.6-1-.6-1.7s.2-1.3.6-1.8 1-.7 1.7-.7 1.2.2 1.7.7c.4.5.6 1 .6 1.7m-1 .1c0-.4-.1-.8-.3-1.1-.2-.4-.5-.6-.9-.6s-.7.2-1 .6c-.2.3-.3.7-.3 1.1 0 .4.1.8.3 1.1.2.4.5.6 1 .6.4 0 .7-.2.9-.6.2-.3.3-.7.3-1.1m6.7 2.3h-1v-2.7c0-.8-.3-1.2-1-1.2-.3 0-.6.1-.8.3s-.3.5-.3.8v2.8h-1V8.7h.9v.7c.1-.2.3-.4.5-.6.3-.2.6-.3 1-.3s.8.1 1.1.4c.4.3.5.9.5 1.6v2.9zm7-3.9h-1.2v2.3c0 .6.2.9.6.9h.5v.8c-.2.1-.5.1-.8.1-.4 0-.7-.1-1-.4-.2-.3-.3-.7-.3-1.3V9.5h-.7v-.8h.7v-.8l1-.3v1.2h1.2v.7m5.6 3.9h-1v-2.7c0-.8-.3-1.3-.9-1.3-.5 0-.8.2-1 .7v3.2h-1V6.6h1v2.8c.3-.5.8-.8 1.4-.8.4 0 .8.1 1.1.4.4.4.5.9.5 1.6-.1 0-.1 2.8-.1 2.8m5.7-2.5v.5H118c0 .5.2.8.5 1.1.3.2.6.3 1 .3.5 0 .9-.1 1.3-.2l.2.7c-.4.2-1 .3-1.6.3-.7 0-1.3-.2-1.7-.6-.4-.4-.6-1-.6-1.7s.2-1.3.6-1.8c.4-.5 1-.8 1.6-.8.7 0 1.2.3 1.5.8.3.3.4.8.4 1.4m-1-.3c0-.3-.1-.6-.2-.8-.2-.3-.5-.4-.8-.4-.3 0-.6.1-.8.4-.2.2-.3.5-.3.8h2.1" fill="#fff"/></svg>