<svg width="111" height="42" viewBox="0 0 74 28" xmlns="http://www.w3.org/2000/svg"><title>ridetype_line</title><path d="M20.929 9.882c-4.933-.701-6.745-2.206-6.745-2.206s1.47-1.198 4.747-2.133c3.279-.935 5.665-1.361 9.4-1.204 2.404.101 4.342.293 6.04.59-.966.285-1.134 1.135-1.134 2.14 0 .944.507 1.751 1.22 2.081-.472.373-1.105.828-1.376.828-.165 0-.292.307-.387.7a60.464 60.464 0 0 1-.841-.022c-.253-.383-.602-.678-1.08-.678-.734 0-1.072-.381-1.227-.732.614-.141 1.086-.53 1.086-1.292 0-.997.534-.664.534-.885 0-.21-.314-.413-.36-.606-.228-.943-.974-1.634-1.86-1.634-1.683 0-1.937 1.003-1.937 2.24 0 .944.507 1.751 1.22 2.081-.472.373-1.105.828-1.376.828-.119 0-.218.159-.3.394-.42-.028-.835-.057-1.242-.087a1.125 1.125 0 0 0-.766-.307c-.734 0-1.072-.381-1.227-.732.614-.141 1.086-.53 1.086-1.292 0-.997.534-.664.534-.885 0-.21-.314-.413-.36-.606-.228-.943-.974-1.634-1.86-1.634-1.683 0-1.937 1.003-1.937 2.24 0 .944.507 1.751 1.22 2.081-.339.268-.76.578-1.072.732zm17.251.937c5.049.173 11.895.427 11.417.205-6.111-2.832-9.138-4.628-13.164-5.653.284.283.496.662.6 1.092.047.193.361.396.361.606 0 .221-.534-.112-.534.885 0 .761-.472 1.15-1.086 1.292.155.35.493.732 1.227.732.543 0 .921.382 1.18.84zm23.218 13.145c5.382-.047 8.725-.258 8.526-1.105-.044-.188-.067-1.19 0-1.716.138-1.068.115-2.35-.296-3.42-.615-1.597-3.526-4.835-7.645-5.34-4.119-.504-2.346-.083-7.98-1.253-6.733-1.4-12.268-8.468-28.383-8.117-4.343.094-8.826.902-16.546 5.147C8.374 8.545 4 9.34 4 11.865c0 3.26-.071 6.642.825 8.064 1.39 2.205 4.04 3.32 5.944 3.59-.105-.153.051-.238.394-.275A5.968 5.968 0 0 1 10.5 20.5c0-3.314 2.693-6 6-6 3.314 0 6 2.693 6 6 0 1.293-.41 2.49-1.106 3.47h30.213A5.97 5.97 0 0 1 50.5 20.5c0-3.314 2.693-6 6-6 3.314 0 6 2.693 6 6 0 1.29-.408 2.485-1.102 3.464zM56.5 25a4.5 4.5 0 1 0 0-9 4.5 4.5 0 0 0 0 9zm-40 0a4.5 4.5 0 1 0 0-9 4.5 4.5 0 0 0 0 9z" fill="#474C62" fill-rule="evenodd"/></svg>