<svg width="111" height="42" viewBox="0 0 74 28" xmlns="http://www.w3.org/2000/svg"><title>ridetype_premier</title><path d="M19.758 18.167c-.803-2.23-2.872-3.789-5.387-3.789-3.243 0-7.228 2.86-5.368 7.919-1.86 0-6.43-.987-8.241-1.987-1.81-1 .175-5.405.175-7.158 0-1.752 0-2.652.533-3.203.533-.551 3.353-.688 5.518-1.05 2.015-.402 4.795-1.953 10.797-3.89C23.788 3.07 28.168 2.543 37.7 3.388c6.314.73 7.337 2.166 13.608 5.308 2.518.346 19.993 2.206 20.599 3.24.018.032.733 1.941.733 1.941s.774.954 1.092 1.998c.349 1.149-.205 4.527-1.092 5.828-.887 1.302-9.334 1.654-9.334 1.654.592-.643 1.014-1.996 1.014-3.048 0-3.283-2.686-5.945-5.93-5.945-2.964 0-5.415 2.224-5.815 5.113-7.057-.614-18.128-1.42-27.584-1.42-2.104 0-3.826.04-5.232.109zm.358 1.992v.095c0 1.106-.245 2.043-.668 2.7h33.733c-.46-.657-.664-1.592-.664-2.644 0-.05 0-.1.002-.15H20.116zm-.19-10.164c-1.546 0-5.09-1.01-4.027-2.02 1.135-1.078 4.45-2.41 9.038-3.29 2.875-.551 8.69-.53 12.852 0 5.56.71 10.789 4.483 12.136 5.31h-30zm38.446 14.667c2.4 0 4.345-2.015 4.345-4.499 0-2.484-1.945-4.499-4.345-4.499-2.4 0-4.345 2.015-4.345 4.5 0 2.483 1.946 4.498 4.345 4.498zm-44.103 0c2.4 0 4.345-2.015 4.345-4.499 0-2.484-1.945-4.499-4.345-4.499-2.4 0-4.344 2.015-4.344 4.5 0 2.483 1.944 4.498 4.344 4.498z" fill="#474B62" fill-rule="evenodd"/></svg>