<svg width="111" height="42" viewBox="0 0 74 28" xmlns="http://www.w3.org/2000/svg"><title>ridetype_plus</title><path d="M63.493 23.298c1.437-.102 3.068-.252 4.091-.458 1.154-.231 2.706-.23 2.37-4.017-.338-3.788-1.254-8.007-3.968-8.654-7.73-1.842-10.044-1.167-15.343-3.734C46.864 4.605 39.474 0 31.993 0H13.338C9.718 0 4.485 2.97 4.24 6.435c-.253 3.58-.24 4.67-.24 9.28 0 1.882 3.916 4.197 7.654 5.87A6.502 6.502 0 0 1 24.5 23.05c.556-.032.914-.049.914-.049H50.5a6.5 6.5 0 1 1 12.993.298zM11.04 4.966c-2.515-.948-.737-3.64 2.562-3.64H31.49c.918 0 4.893.398 7.673 1.352 4.257 1.461 9.53 4.388 12.273 5.904.225.124-21.286-.609-40.396-3.616zM23 23a5 5 0 1 1-10 0 5 5 0 0 1 10 0zm39 0a5 5 0 1 1-10 0 5 5 0 0 1 10 0z" fill="#474C62" fill-rule="evenodd"/></svg>